<?xml version="1.0" standalone="no"?>
<!DOCTYPE svg PUBLIC "-//W3C//DTD SVG 20010904//EN"
 "http://www.w3.org/TR/2001/REC-SVG-20010904/DTD/svg10.dtd">
<svg version="1.0" xmlns="http://www.w3.org/2000/svg"
 width="384.000000pt" height="384.000000pt" viewBox="0 0 384.000000 384.000000"
 preserveAspectRatio="xMidYMid meet">
<metadata>
Created by potrace 1.11, written by Peter Selinger 2001-2013
</metadata>
<g transform="translate(0.000000,384.000000) scale(0.100000,-0.100000)"
fill="#000000" stroke="none">
<path d="M2199 3670 c-91 -48 -178 -177 -213 -316 -38 -146 -38 -360 -2 -517
9 -38 16 -74 16 -82 0 -15 -123 -96 -215 -142 -172 -87 -414 -150 -593 -155
l-102 -3 -39 86 c-171 384 -525 633 -734 516 -112 -63 -110 -215 4 -357 119
-147 379 -265 642 -289 48 -5 90 -10 92 -13 10 -10 55 -210 66 -293 14 -112 7
-362 -15 -465 -13 -61 -45 -187 -51 -197 -1 -1 -46 -7 -100 -13 -292 -33 -551
-161 -662 -328 -137 -204 -25 -386 207 -338 207 43 428 257 550 533 l40 88 92
-2 c242 -6 519 -93 737 -233 80 -51 83 -55 77 -84 -3 -17 -13 -69 -21 -116
-20 -102 -22 -301 -5 -390 46 -246 175 -409 323 -410 59 0 98 19 132 65 36 46
55 115 55 194 -1 198 -122 428 -328 622 l-91 86 43 104 c45 112 102 216 175
319 56 80 216 247 293 306 l57 44 49 -30 c209 -129 469 -198 644 -172 114 17
185 47 239 101 82 81 86 170 12 252 -156 172 -547 148 -881 -53 l-63 -39 -63
50 c-82 66 -229 220 -287 301 -72 102 -129 206 -175 319 l-43 104 88 84 c201
188 316 396 328 594 9 135 -30 234 -108 274 -39 21 -126 18 -170 -5z m169 -55
c59 -49 79 -182 46 -309 -22 -88 -84 -211 -152 -302 -58 -77 -191 -214 -209
-214 -13 0 -33 107 -44 225 -29 327 106 625 283 625 35 0 54 -6 76 -25z
m-1771 -625 c108 -53 222 -160 308 -290 57 -85 125 -215 125 -238 0 -4 -37 -4
-82 0 -257 27 -513 152 -611 300 -142 214 12 349 260 228z m1447 -352 c67
-190 194 -386 356 -549 63 -64 131 -128 150 -143 l35 -26 -35 -26 c-82 -63
-278 -273 -338 -363 -66 -101 -152 -268 -173 -338 -6 -24 -16 -43 -20 -43 -5
0 -41 21 -80 46 -205 133 -474 220 -742 239 -85 7 -89 8 -83 28 82 286 88 593
16 855 -11 40 -20 74 -20 76 0 2 42 7 93 11 114 9 296 45 402 80 99 33 283
122 350 169 28 19 55 35 60 35 6 1 19 -23 29 -51z m1318 -542 c79 -17 122 -38
165 -79 65 -61 65 -132 0 -195 -104 -100 -332 -117 -562 -41 -88 30 -285 126
-285 139 0 4 48 32 108 63 209 108 409 147 574 113z m-2332 -715 c0 -25 -68
-156 -125 -242 -168 -253 -425 -394 -567 -311 -38 22 -62 75 -55 123 26 198
320 388 660 428 39 5 75 9 80 10 4 0 7 -3 7 -8z m1126 -423 c137 -141 214
-266 254 -410 37 -133 23 -252 -36 -314 -26 -28 -38 -34 -75 -34 -144 0 -260
175 -289 435 -15 139 15 415 46 415 6 0 51 -42 100 -92z"/>
</g>
</svg>
