<?xml version="1.0" standalone="no"?>
<!DOCTYPE svg PUBLIC "-//W3C//DTD SVG 20010904//EN"
 "http://www.w3.org/TR/2001/REC-SVG-20010904/DTD/svg10.dtd">
<svg version="1.0" xmlns="http://www.w3.org/2000/svg"
 width="384.000000pt" height="384.000000pt" viewBox="0 0 384.000000 384.000000"
 preserveAspectRatio="xMidYMid meet">
<metadata>
Created by potrace 1.11, written by Peter Selinger 2001-2013
</metadata>
<g transform="translate(0.000000,384.000000) scale(0.100000,-0.100000)"
fill="#000000" stroke="none">
<path d="M2193 3719 c-104 -40 -203 -177 -253 -349 -41 -138 -38 -430 5 -585
5 -16 -7 -28 -62 -61 -211 -129 -439 -204 -673 -220 l-85 -6 -44 92 c-65 136
-133 234 -236 335 -139 137 -272 204 -405 205 -87 0 -134 -15 -180 -56 -52
-47 -70 -89 -70 -167 0 -80 12 -115 67 -199 115 -175 395 -317 681 -345 l77
-8 12 -36 c29 -89 44 -195 50 -339 6 -168 -4 -279 -39 -417 l-20 -83 -37 0
c-20 0 -75 -7 -124 -15 -298 -53 -538 -200 -632 -389 -30 -58 -35 -79 -35
-138 0 -81 15 -121 61 -165 48 -46 101 -65 180 -65 88 0 156 21 251 77 153 90
297 255 391 448 l52 109 84 -6 c104 -8 261 -39 361 -72 149 -50 377 -174 374
-204 -1 -8 -9 -55 -18 -104 -21 -116 -21 -323 0 -423 54 -262 197 -433 363
-433 106 0 181 60 220 178 72 212 -62 545 -314 780 l-76 71 32 81 c81 205 255
440 429 582 l46 37 129 -65 c211 -105 407 -147 576 -124 150 21 244 71 307
164 28 42 32 56 32 115 0 56 -4 74 -28 112 -136 214 -512 233 -891 43 l-125
-63 -77 65 c-164 137 -329 370 -405 571 l-24 63 76 72 c140 133 247 295 299
453 106 323 -54 579 -302 484z m146 -143 c45 -36 54 -170 20 -282 -27 -87 -59
-150 -120 -239 -50 -72 -154 -183 -164 -173 -3 2 -10 54 -16 115 -14 129 -2
256 33 367 52 166 174 271 247 212z m-1760 -632 c126 -62 277 -226 361 -393
l22 -44 -50 7 c-201 27 -420 132 -516 249 -108 132 -81 237 59 222 28 -3 83
-22 124 -41z m1477 -461 c73 -155 173 -294 314 -436 l127 -127 -121 -123
c-160 -159 -277 -329 -351 -507 -15 -36 -28 -66 -30 -68 -1 -1 -33 16 -71 39
-195 119 -516 219 -702 219 -44 0 -53 3 -48 15 3 8 16 66 28 128 32 160 32
432 0 594 -13 62 -25 120 -28 128 -5 12 5 15 54 15 182 0 504 101 707 223 60
35 60 36 69 14 5 -12 29 -63 52 -114z m1356 -453 c60 -22 118 -76 118 -110 0
-26 -46 -77 -89 -99 -92 -47 -250 -52 -404 -12 -86 23 -249 91 -254 107 -7 22
178 99 298 123 30 6 63 13 74 15 48 11 202 -3 257 -24z m-2473 -742 c-83 -165
-234 -330 -360 -392 -204 -101 -316 -17 -204 151 46 69 129 134 240 188 95 47
241 89 323 94 l22 1 -21 -42z m1209 -393 c147 -157 232 -335 232 -486 0 -165
-87 -213 -191 -107 -104 107 -157 333 -129 557 7 56 16 101 20 101 4 0 35 -29
68 -65z"/>
</g>
</svg>
