<?xml version="1.0" standalone="no"?>
<!DOCTYPE svg PUBLIC "-//W3C//DTD SVG 20010904//EN"
 "http://www.w3.org/TR/2001/REC-SVG-20010904/DTD/svg10.dtd">
<svg version="1.0" xmlns="http://www.w3.org/2000/svg"
 width="384.000000pt" height="384.000000pt" viewBox="0 0 384.000000 384.000000"
 preserveAspectRatio="xMidYMid meet">
<metadata>
Created by potrace 1.11, written by Peter Selinger 2001-2013
</metadata>
<g transform="translate(0.000000,384.000000) scale(0.100000,-0.100000)"
fill="#000000" stroke="none">
<path d="M2184 3716 c-66 -31 -114 -74 -160 -143 -42 -63 -89 -176 -99 -238
-3 -22 -10 -62 -15 -90 -5 -27 -7 -108 -5 -180 3 -126 5 -143 25 -230 15 -66
13 -72 -47 -109 -199 -125 -450 -208 -674 -223 l-97 -6 -41 88 c-127 271 -347
483 -555 536 -25 6 -79 9 -119 7 -86 -5 -142 -35 -184 -100 -25 -37 -28 -51
-28 -122 0 -70 4 -89 29 -138 55 -106 150 -196 286 -271 115 -63 300 -119 435
-132 39 -3 73 -9 76 -13 8 -8 34 -122 50 -212 21 -123 18 -332 -6 -470 -12
-66 -36 -165 -43 -176 -4 -6 -32 -14 -62 -17 -345 -38 -635 -197 -737 -405
-24 -48 -28 -69 -28 -139 0 -74 3 -85 30 -125 60 -87 187 -120 316 -82 141 41
299 164 417 322 56 76 152 251 152 277 0 15 6 17 50 17 137 0 387 -58 536
-123 122 -53 254 -135 254 -157 0 -9 -4 -33 -10 -52 -18 -61 -25 -152 -24
-295 1 -162 22 -260 82 -384 40 -82 119 -169 185 -202 133 -68 271 -5 323 146
71 213 -49 521 -298 766 l-90 88 12 38 c19 59 107 231 152 298 63 94 142 187
223 263 122 117 109 114 223 54 185 -96 345 -141 507 -140 169 0 284 37 365
118 50 50 70 98 70 169 0 156 -184 273 -430 272 -163 0 -310 -40 -493 -133
l-118 -60 -37 28 c-80 60 -230 223 -294 319 -67 101 -129 219 -163 309 l-19
48 81 78 c287 275 404 631 278 845 -56 96 -175 130 -281 81z m137 -126 c49
-27 69 -135 45 -249 -17 -80 -75 -209 -128 -283 -42 -59 -157 -188 -168 -188
-12 0 -27 118 -28 225 -1 169 38 320 106 411 62 81 122 111 173 84z m-1766
-631 c56 -27 50 -23 125 -83 56 -44 77 -66 141 -146 41 -50 129 -198 129 -216
0 -24 -223 30 -336 82 -221 101 -359 293 -267 373 24 21 34 23 92 19 40 -3 86
-15 116 -29z m1489 -459 c93 -198 266 -424 421 -548 l40 -32 -25 -17 c-46 -31
-204 -197 -261 -273 -31 -41 -75 -106 -98 -144 -42 -69 -111 -207 -111 -224 0
-4 -6 -17 -14 -27 -12 -17 -16 -16 -74 19 -104 63 -248 125 -374 161 -146 43
-162 46 -308 60 -79 8 -83 11 -75 44 61 231 66 508 15 745 -11 50 -20 91 -20
92 0 0 33 4 73 7 39 4 83 9 97 12 14 3 41 8 60 11 159 25 439 134 561 218 l34
24 14 -31 c8 -18 28 -61 45 -97z m1294 -445 c95 -15 182 -79 182 -134 0 -106
-206 -170 -419 -131 -104 19 -341 109 -341 130 0 11 166 86 232 105 129 37
242 47 346 30z m-2419 -791 c-91 -167 -220 -307 -342 -368 -170 -87 -293 -45
-250 85 38 112 175 226 355 293 80 30 250 67 261 56 4 -4 -6 -34 -24 -66z
m1214 -353 c162 -174 255 -380 242 -535 -11 -141 -95 -174 -193 -78 -100 99
-143 248 -137 472 2 74 6 144 9 155 2 11 5 26 5 33 2 23 18 12 74 -47z"/>
</g>
</svg>
